{
  "accessors": [
    {
      "bufferView": 2,
      "componentType": 5126,
      "count": 7811,
      "max": [
        1.6652393341064453,
        2.4817605018615723,
        2.7275681495666504
      ],
      "min": [
        -1.7532142400741577,
        -2.4817605018615723,
        -3.6646666526794434
      ],
      "type": "VEC3"
    },
    {
      "bufferView": 2,
      "byteOffset": 93732,
      "componentType": 5126,
      "count": 7811,
      "max": [
        1.0,
        1.0,
        1.0
      ],
      "min": [
        -1.0,
        -1.0,
        -1.0
      ],
      "type": "VEC3"
    },
    {
      "bufferView": 1,
      "componentType": 5126,
      "count": 7811,
      "max": [
        0.9990708827972412,
        0.9958983063697815
      ],
      "min": [
        0.00092906947247684,
        0.0009290833841077983
      ],
      "type": "VEC2"
    },
    {
      "bufferView": 0,
      "componentType": 5125,
      "count": 23484,
      "type": "SCALAR"
    },
    {
      "bufferView": 2,
      "byteOffset": 187464,
      "componentType": 5126,
      "count": 2216,
      "max": [
        0.8858324289321899,
        2.3922791481018066,
        1.841895341873169
      ],
      "min": [
        -0.8858324289321899,
        -2.3922791481018066,
        -1.841895341873169
      ],
      "type": "VEC3"
    },
    {
      "bufferView": 2,
      "byteOffset": 214056,
      "componentType": 5126,
      "count": 2216,
      "max": [
        1.0,
        1.0,
        1.0
      ],
      "min": [
        -1.0,
        -1.0,
        -1.0
      ],
      "type": "VEC3"
    },
    {
      "bufferView": 1,
      "byteOffset": 62488,
      "componentType": 5126,
      "count": 2216,
      "max": [
        0.47572606801986694,
        0.10781045258045197
      ],
      "min": [
        0.3712339401245117,
        0.004397308453917503
      ],
      "type": "VEC2"
    },
    {
      "bufferView": 0,
      "byteOffset": 93936,
      "componentType": 5125,
      "count": 8184,
      "type": "SCALAR"
    },
    {
      "bufferView": 2,
      "byteOffset": 240648,
      "componentType": 5126,
      "count": 1407,
      "max": [
        3.5805203914642334,
        0.728227972984314,
        0.37583309412002563
      ],
      "min": [
        -0.09566929191350937,
        -0.9480350017547607,
        -0.10708755254745483
      ],
      "type": "VEC3"
    },
    {
      "bufferView": 2,
      "byteOffset": 257532,
      "componentType": 5126,
      "count": 1407,
      "max": [
        1.0,
        1.0,
        1.0
      ],
      "min": [
        -1.0,
        -1.0,
        -1.0
      ],
      "type": "VEC3"
    },
    {
      "bufferView": 1,
      "byteOffset": 80216,
      "componentType": 5126,
      "count": 1407,
      "max": [
        0.4603102207183838,
        0.21579864621162415
      ],
      "min": [
        0.37778061628341675,
        0.1182054653763771
      ],
      "type": "VEC2"
    },
    {
      "bufferView": 0,
      "byteOffset": 126672,
      "componentType": 5125,
      "count": 4806,
      "type": "SCALAR"
    },
    {
      "bufferView": 2,
      "byteOffset": 274416,
      "componentType": 5126,
      "count": 1330,
      "max": [
        1.3830742835998535,
        1.333508849143982,
        2.6117043495178223
      ],
      "min": [
        -1.383074164390564,
        -1.333508849143982,
        -2.6117043495178223
      ],
      "type": "VEC3"
    },
    {
      "bufferView": 2,
      "byteOffset": 290376,
      "componentType": 5126,
      "count": 1330,
      "max": [
        0.9991642832756042,
        0.9999999403953552,
        0.9993816018104553
      ],
      "min": [
        -0.9991399049758911,
        -0.9999999403953552,
        -0.9992563724517822
      ],
      "type": "VEC3"
    },
    {
      "bufferView": 1,
      "byteOffset": 91472,
      "componentType": 5126,
      "count": 1330,
      "max": [
        0.8212139010429382,
        0.8343014121055603
      ],
      "min": [
        0.39094021916389465,
        0.015786506235599518
      ],
      "type": "VEC2"
    },
    {
      "bufferView": 0,
      "byteOffset": 145896,
      "componentType": 5125,
      "count": 6552,
      "type": "SCALAR"
    }
  ],
  "asset": {
    "extras": {
      "author": "Dot-e (https://sketchfab.com/rockin.e26)",
      "license": "CC-BY-4.0 (http://creativecommons.org/licenses/by/4.0/)",
      "source": "https://sketchfab.com/3d-models/cyberamic-cec-endo-head-6f24effc065a4973a833a5b70559564c",
      "title": "Cyberamic CEC Endo Head"
    },
    "generator": "Sketchfab-16.7.0",
    "version": "2.0"
  },
  "bufferViews": [
    {
      "buffer": 0,
      "byteLength": 172104,
      "name": "floatBufferViews",
      "target": 34963
    },
    {
      "buffer": 0,
      "byteLength": 102112,
      "byteOffset": 172104,
      "byteStride": 8,
      "name": "floatBufferViews",
      "target": 34962
    },
    {
      "buffer": 0,
      "byteLength": 306336,
      "byteOffset": 274216,
      "byteStride": 12,
      "name": "floatBufferViews",
      "target": 34962
    }
  ],
  "buffers": [
    {
      "byteLength": 580552,
      "uri": "scene.bin"
    }
  ],
  "images": [
    {
      "uri": "textures/Material_37_baseColor.png"
    },
    {
      "uri": "textures/Material_37_metallicRoughness.png"
    }
  ],
  "materials": [
    {
      "doubleSided": true,
      "name": "Material_37",
      "pbrMetallicRoughness": {
        "baseColorTexture": {
          "index": 0
        },
        "metallicFactor": 0.7770415755102371,
        "metallicRoughnessTexture": {
          "index": 1
        }
      }
    }
  ],
  "meshes": [
    {
      "name": "BaseHead_Material #37_0",
      "primitives": [
        {
          "attributes": {
            "NORMAL": 1,
            "POSITION": 0,
            "TEXCOORD_0": 2
          },
          "indices": 3,
          "material": 0,
          "mode": 4
        }
      ]
    },
    {
      "name": "Longbolts_Material #37_0",
      "primitives": [
        {
          "attributes": {
            "NORMAL": 5,
            "POSITION": 4,
            "TEXCOORD_0": 6
          },
          "indices": 7,
          "material": 0,
          "mode": 4
        }
      ]
    },
    {
      "name": "Scres_Material #37_0",
      "primitives": [
        {
          "attributes": {
            "NORMAL": 9,
            "POSITION": 8,
            "TEXCOORD_0": 10
          },
          "indices": 11,
          "material": 0,
          "mode": 4
        }
      ]
    },
    {
      "name": "Tubes_Material #37_0",
      "primitives": [
        {
          "attributes": {
            "NORMAL": 13,
            "POSITION": 12,
            "TEXCOORD_0": 14
          },
          "indices": 15,
          "material": 0,
          "mode": 4
        }
      ]
    }
  ],
  "nodes": [
    {
      "children": [
        1
      ],
      "matrix": [
        1.0,
        0.0,
        0.0,
        0.0,
        0.0,
        2.220446049250313e-16,
        -1.0,
        0.0,
        0.0,
        1.0,
        2.220446049250313e-16,
        0.0,
        0.0,
        0.0,
        0.0,
        1.0
      ],
      "name": "Sketchfab_model"
    },
    {
      "children": [
        2
      ],
      "matrix": [
        0.009999999776482582,
        0.0,
        0.0,
        0.0,
        0.0,
        0.0,
        0.009999999776482582,
        0.0,
        0.0,
        -0.009999999776482582,
        0.0,
        0.0,
        0.0,
        0.0,
        0.0,
        1.0
      ],
      "name": "9eb72203312246789d0bbd098651a1a3.fbx"
    },
    {
      "children": [
        3,
        5,
        7,
        9
      ],
      "name": "RootNode"
    },
    {
      "children": [
        4
      ],
      "matrix": [
        4.0023718379066247e-07,
        0.0,
        9.156359672546376,
        0.0,
        9.156359672546255,
        -1.4917602572824137e-06,
        -4.0023718277410234e-07,
        0.0,
        1.4917602588072538e-06,
        9.156359672546264,
        -6.505984851334565e-14,
        0.0,
        -0.43271350860595703,
        42.90858459472656,
        -2.291691303253174,
        1.0
      ],
      "name": "BaseHead"
    },
    {
      "mesh": 0,
      "name": "BaseHead_Material #37_0"
    },
    {
      "children": [
        6
      ],
      "matrix": [
        4.0023718379066247e-07,
        0.0,
        9.156359672546376,
        0.0,
        9.156359672546255,
        -1.4917602572824137e-06,
        -4.0023718277410234e-07,
        0.0,
        1.4917602588072538e-06,
        9.156359672546264,
        -6.505984851334565e-14,
        0.0,
        -0.43271350860595703,
        41.19189453125,
        -1.5034828186035156,
        1.0
      ],
      "name": "Longbolts"
    },
    {
      "mesh": 1,
      "name": "Longbolts_Material #37_0"
    },
    {
      "children": [
        8
      ],
      "matrix": [
        1.7828090231698878e-06,
        -9.156359672546214,
        -5.606654738894958e-16,
        0.0,
        9.156359672546188,
        1.7828090231698878e-06,
        -6.91285947189121e-07,
        0.0,
        6.912859471891079e-07,
        1.3403767595665687e-13,
        9.15635967254636,
        0.0,
        3.4265236854553223,
        51.14161682128906,
        -2.886061429977417,
        1.0
      ],
      "name": "Scres"
    },
    {
      "mesh": 2,
      "name": "Scres_Material #37_0"
    },
    {
      "children": [
        10
      ],
      "matrix": [
        -9.15635967254628,
        1.121330705412169e-15,
        1.3825718943782377e-06,
        0.0,
        1.3825718943782193e-06,
        -1.491760259315534e-06,
        9.15635967254616,
        0.0,
        2.2637087129221445e-13,
        9.156359672546264,
        1.4917602613486542e-06,
        0.0,
        -4.315926551818848,
        24.798782348632813,
        -9.250212669372559,
        1.0
      ],
      "name": "Tubes"
    },
    {
      "mesh": 3,
      "name": "Tubes_Material #37_0"
    }
  ],
  "samplers": [
    {
      "magFilter": 9729,
      "minFilter": 9987,
      "wrapS": 10497,
      "wrapT": 10497
    }
  ],
  "scene": 0,
  "scenes": [
    {
      "name": "Sketchfab_Scene",
      "nodes": [
        0
      ]
    }
  ],
  "textures": [
    {
      "sampler": 0,
      "source": 0
    },
    {
      "sampler": 0,
      "source": 1
    }
  ]
}
